<svg width="40" height="40" viewBox="0 0 40 40" fill="none" xmlns="http://www.w3.org/2000/svg">
<rect width="40" height="40" rx="8" fill="#1E88E5"/>
<path d="M12 14C12 12.8954 12.8954 12 14 12H26C27.1046 12 28 12.8954 28 14V26C28 27.1046 27.1046 28 26 28H14C12.8954 28 12 27.1046 12 26V14Z" fill="white"/>
<path d="M16 16H24V18H16V16Z" fill="#1E88E5"/>
<path d="M16 20H22V22H16V20Z" fill="#1E88E5"/>
<path d="M16 24H20V26H16V24Z" fill="#1E88E5"/>
<circle cx="22" cy="25" r="1" fill="#4CAF50"/>
<circle cx="24" cy="23" r="1" fill="#FF9800"/>
<circle cx="22" cy="21" r="1" fill="#F44336"/>
</svg>
